<svg xmlns="http://www.w3.org/2000/svg" viewBox="0 0 708.661 708.661"><defs><clipPath id="a"><path fill="url(#radialGradient5671)" d="M283.887-497.314h133.611v128.056H283.887z" transform="scale(1 -1)"/></clipPath><clipPath id="b"><path d="M0 551.986h530.973V0H0v551.986z"/></clipPath></defs><g clip-path="url(#a)" transform="matrix(5.53092 0 0 -5.53092 -1583.012 2752.424)"><g clip-path="url(#b)"><path fill="#fff" fill-rule="evenodd" d="M152.608 444.545c-8.995 0-16.288-7.293-16.288-16.29 0-7.197 4.667-13.302 11.14-15.457.815-.149 1.112.354 1.112.786 0 .386-.014 1.411-.022 2.77-4.53-.984-5.487 2.184-5.487 2.184-.74 1.881-1.809 2.382-1.809 2.382-1.479 1.011.112.991.112.991 1.635-.116 2.495-1.679 2.495-1.679 1.453-2.489 3.813-1.77 4.741-1.354.148 1.053.568 1.771 1.034 2.178-3.617.411-7.42 1.81-7.42 8.051 0 1.778.635 3.232 1.677 4.371-.168.412-.727 2.068.16 4.311 0 0 1.367.438 4.48-1.67 1.298.361 2.692.542 4.077.548a15.625 15.625 0 0 0 4.078-.548c3.11 2.108 4.475 1.67 4.475 1.67.89-2.243.33-3.899.162-4.31 1.044-1.14 1.675-2.594 1.675-4.372 0-6.258-3.809-7.635-7.438-8.038.585-.503 1.106-1.497 1.106-3.017 0-2.177-.02-3.934-.02-4.468 0-.436.293-.943 1.12-.784 6.468 2.16 11.131 8.26 11.131 15.455 0 8.997-7.294 16.29-16.29 16.29M350.609 493.555c-33.347 0-60.388-27.035-60.388-60.388 0-26.68 17.303-49.316 41.297-57.301 3.018-.56 4.126 1.31 4.126 2.905 0 1.439-.056 6.197-.082 11.243-16.8-3.653-20.345 7.125-20.345 7.125-2.747 6.979-6.705 8.836-6.705 8.836-5.48 3.748.413 3.67.413 3.67 6.064-.425 9.257-6.223 9.257-6.223 5.386-9.231 14.127-6.562 17.573-5.02.543 3.903 2.107 6.568 3.834 8.076-13.413 1.526-27.513 6.705-27.513 29.844 0 6.592 2.359 11.98 6.222 16.209-.627 1.52-2.694 7.663.586 15.98 0 0 5.07 1.623 16.61-6.19 4.817 1.338 9.983 2.009 15.115 2.033 5.132-.024 10.302-.695 15.128-2.033 11.526 7.813 16.59 6.19 16.59 6.19 3.287-8.317 1.22-14.46.593-15.98 3.872-4.23 6.214-9.617 6.214-16.21 0-23.194-14.127-28.3-27.574-29.795 2.166-1.874 4.096-5.55 4.096-11.183 0-8.08-.07-14.583-.07-16.572 0-1.608 1.087-3.49 4.148-2.898 23.982 7.994 41.263 30.622 41.263 57.294 0 33.353-27.037 60.388-60.388 60.388"/><path fill="#fff" d="M313.093 406.851c-.133-.3-.605-.39-1.035-.185-.439.198-.684.607-.542.908.13.308.602.394 1.04.188.438-.197.688-.61.537-.91M315.54 404.123c-.289-.267-.853-.143-1.234.279-.396.421-.469.985-.177 1.255.297.267.843.142 1.238-.279.396-.426.473-.984.172-1.255M317.92 400.646c-.37-.258-.976-.017-1.35.52-.37.538-.37 1.182.01 1.44.373.258.97.025 1.35-.507.368-.546.368-1.19-.01-1.453M321.182 397.285c-.33-.365-1.036-.267-1.552.232-.528.486-.675 1.177-.344 1.542.336.366 1.045.263 1.565-.23.524-.487.683-1.183.331-1.544M325.682 395.334c-.147-.473-.825-.687-1.509-.486-.683.207-1.13.76-.992 1.238.142.476.824.7 1.513.485.682-.206 1.13-.756.988-1.237M330.625 394.973c.017-.498-.563-.911-1.281-.92-.722-.016-1.307.387-1.315.877 0 .503.568.91 1.289.924.718.014 1.307-.387 1.307-.881M335.223 395.755c.086-.485-.413-.984-1.126-1.117-.7-.13-1.35.172-1.439.653-.087.498.42.997 1.121 1.126.714.124 1.353-.168 1.444-.662"/><path fill="none" stroke="#3a7fc3" stroke-linecap="round" stroke-miterlimit="10" d="M224.898 499.488v-.5"/><path fill="none" stroke="#3a7fc3" stroke-dasharray="1 2" stroke-linecap="round" stroke-miterlimit="10" d="M224.898 496.988V362.995"/><path fill="none" stroke="#3a7fc3" stroke-linecap="round" stroke-miterlimit="10" d="M224.898 361.995v-.5"/><path fill="#fff" d="M133.276 347.48c-.38.275-.866.413-1.458.413-.24 0-.476-.024-.708-.07a1.925 1.925 0 0 1-.618-.24 1.274 1.274 0 0 1-.432-.453c-.108-.187-.162-.42-.162-.7 0-.265.078-.479.234-.643.156-.165.364-.298.624-.402.26-.104.554-.19.882-.259.328-.067.662-.14 1.002-.22.34-.08.674-.175 1.002-.284.328-.107.622-.253.882-.437s.468-.416.624-.695c.156-.28.234-.633.234-1.057 0-.456-.102-.846-.306-1.17a2.518 2.518 0 0 0-.786-.792 3.42 3.42 0 0 0-1.074-.444 5.209 5.209 0 0 0-2.544.042c-.428.12-.804.302-1.128.546-.324.244-.58.556-.768.936-.188.38-.282.83-.282 1.35h1.08c0-.36.07-.67.21-.93a1.9 1.9 0 0 1 .552-.642c.228-.167.494-.292.798-.372.304-.08.616-.12.936-.12.256 0 .514.024.774.073.26.047.494.13.702.246.208.115.376.273.504.472.128.201.192.457.192.77 0 .295-.078.535-.234.72a1.731 1.731 0 0 1-.624.45c-.26.115-.554.21-.882.281l-1.002.223c-.34.075-.674.163-1.002.263-.328.1-.622.232-.882.396s-.468.376-.624.636c-.156.26-.234.586-.234.978 0 .432.088.806.264 1.122.176.316.41.575.702.78.292.204.624.356.996.456.372.1.754.15 1.146.15.44 0 .848-.053 1.224-.156.376-.104.706-.268.99-.493.284-.223.508-.505.672-.845.164-.34.254-.746.27-1.218h-1.08c-.064.616-.286 1.062-.666 1.338M137.554 346.285v-.912h.024c.464.705 1.132 1.057 2.004 1.057.384 0 .732-.08 1.044-.24.312-.16.532-.432.66-.817.208.336.482.596.822.78.34.185.714.277 1.122.277.312 0 .594-.035.846-.102a1.77 1.77 0 0 0 .648-.318c.18-.145.32-.33.42-.559.1-.227.15-.502.15-.822v-4.547h-1.02v4.067c0 .193-.016.372-.048.54a1.097 1.097 0 0 1-.18.438.892.892 0 0 1-.366.295c-.156.072-.358.107-.606.107-.504 0-.9-.143-1.188-.43-.288-.29-.432-.673-.432-1.154v-3.863h-1.02v4.067c0 .201-.018.384-.054.552a1.171 1.171 0 0 1-.186.438.871.871 0 0 1-.354.29 1.373 1.373 0 0 1-.57.1c-.296 0-.55-.059-.762-.179a1.742 1.742 0 0 1-.804-.955 1.48 1.48 0 0 1-.09-.45v-3.863h-1.02v6.203h.96zM150.166 343.076a7.313 7.313 0 0 0-.654-.108c-.228-.029-.458-.06-.69-.097a2.494 2.494 0 0 1-.624-.174 1.126 1.126 0 0 1-.45-.342c-.116-.148-.174-.349-.174-.605 0-.168.034-.31.102-.426a.844.844 0 0 1 .264-.283c.108-.07.236-.123.384-.155a2.06 2.06 0 0 1 .45-.048c.336 0 .624.045.864.137.24.092.436.208.588.35.152.138.264.29.336.454.072.164.108.318.108.463v1.043a1.255 1.255 0 0 0-.504-.209m1.428-3.127c-.264 0-.474.074-.63.223-.156.147-.234.39-.234.725a2.428 2.428 0 0 0-.978-.725 3.213 3.213 0 0 0-1.206-.223c-.28 0-.544.03-.792.09s-.466.16-.654.301a1.456 1.456 0 0 0-.444.54c-.108.22-.162.485-.162.798 0 .351.06.64.18.863.12.224.278.406.474.547.196.14.42.246.672.318.252.071.51.131.774.18.28.055.546.097.798.125.252.028.474.068.666.121.192.051.344.127.456.227.112.101.168.246.168.44 0 .222-.042.402-.126.538a.857.857 0 0 1-.324.312c-.132.073-.28.121-.444.145a3.498 3.498 0 0 1-.486.035c-.432 0-.792-.082-1.08-.246-.288-.164-.444-.474-.468-.93h-1.02c.016.384.096.708.24.973.144.264.336.478.576.642.24.163.516.282.828.354.312.071.64.108.984.108.28 0 .558-.02.834-.06.276-.04.526-.122.75-.247a1.43 1.43 0 0 0 .54-.522c.136-.224.204-.515.204-.876v-3.192c0-.24.014-.416.042-.527.028-.113.122-.168.282-.168.088 0 .192.02.312.06v-.793c-.176-.103-.42-.156-.732-.156M154.354 340.082h-1.02v8.567h1.02v-8.567zM157.017 340.082h-1.02v8.567h1.02v-8.567zM101.854 330.986v.9h1.044v.923c0 .504.146.886.438 1.146.292.26.718.39 1.278.39.096 0 .206-.007.33-.023.124-.017.234-.04.33-.072v-.889a1.214 1.214 0 0 1-.288.066c-.104.012-.2.018-.288.018-.248 0-.44-.048-.576-.144-.136-.096-.204-.28-.204-.55v-.866h1.2v-.899h-1.2v-5.305h-1.02v5.305h-1.044zM106.924 327.775c.1-.292.238-.535.414-.732.176-.196.382-.346.618-.45.236-.103.486-.156.75-.156s.514.053.75.156c.236.104.442.254.618.45.176.197.314.44.414.732.1.292.15.626.15 1.002 0 .377-.05.71-.15 1.002-.1.293-.238.538-.414.738a1.775 1.775 0 0 1-.618.456 1.824 1.824 0 0 1-.75.157c-.264 0-.514-.052-.75-.157a1.775 1.775 0 0 1-.618-.456 2.153 2.153 0 0 1-.414-.738c-.1-.292-.15-.625-.15-1.002 0-.376.05-.71.15-1.002m-1.038 2.28c.128.396.32.74.576 1.033.256.291.572.521.948.69.376.167.808.251 1.296.251.496 0 .93-.084 1.302-.252.372-.168.686-.398.942-.689.256-.293.448-.637.576-1.033.128-.395.192-.822.192-1.278 0-.455-.064-.88-.192-1.272a2.904 2.904 0 0 0-.576-1.026 2.662 2.662 0 0 0-.942-.684c-.372-.164-.806-.246-1.302-.246-.488 0-.92.082-1.296.246a2.65 2.65 0 0 0-.948.684 2.904 2.904 0 0 0-.576 1.026 4.08 4.08 0 0 0-.192 1.272c0 .456.064.883.192 1.278M113.842 331.886v-1.308h.024c.248.504.552.875.912 1.116.36.24.816.35 1.368.336v-1.081c-.408 0-.756-.055-1.044-.168a1.629 1.629 0 0 1-.696-.492 2.024 2.024 0 0 1-.384-.785 4.242 4.242 0 0 1-.12-1.062v-2.76h-1.02v6.204h.96zM122.733 325.682v6.096h-2.208v.816c.288 0 .568.022.84.066.272.043.518.125.738.247.22.119.406.283.558.49.152.209.256.473.312.793h.78v-8.508h-1.02zM128.83 330.103c-.217-.1-.4-.236-.553-.408a1.684 1.684 0 0 1-.34-.61 2.412 2.412 0 0 1-.115-.75c0-.264.04-.512.12-.745.08-.232.194-.431.342-.6.148-.168.332-.303.552-.403.22-.1.47-.15.75-.15s.526.05.738.15c.212.1.39.24.534.414.144.176.254.378.33.606.076.228.114.467.114.715 0 .263-.034.513-.102.75a1.656 1.656 0 0 1-.318.611 1.584 1.584 0 0 1-.54.414 1.724 1.724 0 0 1-.756.156c-.288 0-.54-.05-.756-.15m1.848 2.838c-.248.232-.576.348-.984.348-.432 0-.78-.106-1.044-.318a2.161 2.161 0 0 1-.618-.804 3.883 3.883 0 0 1-.306-1.05 8.603 8.603 0 0 1-.096-1.056l.024-.023c.24.392.538.675.894.852.356.176.766.265 1.23.265.408 0 .774-.07 1.098-.211.324-.14.596-.335.816-.583.22-.248.39-.539.51-.875.12-.337.18-.7.18-1.093a3.54 3.54 0 0 0-.144-.972 2.61 2.61 0 0 0-.474-.918 2.532 2.532 0 0 0-.876-.683c-.364-.18-.814-.27-1.35-.27-.632 0-1.14.127-1.524.383a2.62 2.62 0 0 0-.888.984c-.208.4-.346.84-.414 1.321a9.9 9.9 0 0 0-.102 1.391c0 .583.05 1.15.15 1.7a4.6 4.6 0 0 0 .51 1.457c.24.424.56.763.96 1.02.4.256.904.384 1.512.384.704 0 1.264-.186 1.68-.558.416-.372.656-.91.72-1.614h-1.02c-.049.385-.197.692-.445.924M138.316 329.684a2.303 2.303 0 0 1-.348.738 1.705 1.705 0 0 1-.6.516 1.825 1.825 0 0 1-.858.192c-.344 0-.636-.068-.876-.204a1.766 1.766 0 0 1-.588-.534 2.233 2.233 0 0 1-.33-.75 3.543 3.543 0 0 1-.102-.853c0-.303.036-.597.108-.88.07-.286.186-.536.34-.75.158-.217.359-.391.608-.523.247-.132.548-.198.9-.198.35 0 .646.068.882.204.236.136.425.315.569.54.145.224.249.48.312.768.064.289.097.584.097.888 0 .287-.038.57-.114.846m-3.666 2.202v-.841h.024c.168.345.43.595.792.75.36.157.756.235 1.188.235.48 0 .898-.088 1.254-.264a2.55 2.55 0 0 0 .888-.714c.236-.3.413-.646.534-1.038.12-.392.18-.81.18-1.248 0-.44-.058-.855-.175-1.248a2.914 2.914 0 0 0-.527-1.025 2.49 2.49 0 0 0-.888-.691c-.357-.168-.771-.252-1.242-.252-.153 0-.323.017-.511.048a2.805 2.805 0 0 0-.557.156c-.184.073-.36.17-.522.294a1.657 1.657 0 0 0-.414.462h-.024v-3.191h-1.02v8.567h1.02zM140.217 331.886h1.308l1.488-2.172 1.548 2.172h1.224l-2.136-2.856 2.4-3.348h-1.308l-1.728 2.568-1.728-2.568h-1.236l2.328 3.264-2.16 2.94zM150.225 328.537h-3.468v.961h3.468v-.961zM154.077 325.682v6.096h-2.208v.816c.288 0 .568.022.84.066.272.043.518.125.738.247.22.119.406.283.558.49.152.209.256.473.312.793h.78v-8.508h-1.02zM158.157 332.377c.112.369.286.686.522.955.236.268.53.478.882.629a3 3 0 0 0 1.2.228c.368 0 .714-.053 1.038-.162.324-.107.606-.263.846-.467.24-.204.43-.458.57-.762a2.5 2.5 0 0 0 .21-1.056c0-.377-.058-.71-.174-.996a2.834 2.834 0 0 0-.462-.774 3.845 3.845 0 0 0-.66-.618c-.248-.184-.504-.36-.768-.528-.264-.16-.528-.318-.792-.474a6.507 6.507 0 0 1-.726-.498 3.268 3.268 0 0 1-.564-.571 1.603 1.603 0 0 1-.306-.701h4.368v-.9h-5.556c.04.504.13.933.27 1.29.14.356.318.666.534.93.216.264.46.496.732.696.272.199.556.387.852.564.36.224.676.43.948.617a4.2 4.2 0 0 1 .678.57c.18.192.316.4.408.625.092.223.138.483.138.78a1.49 1.49 0 0 1-1.008 1.428c-.2.072-.412.107-.636.107a1.48 1.48 0 0 1-.762-.185 1.591 1.591 0 0 1-.522-.487 2.016 2.016 0 0 1-.294-.677 2.887 2.887 0 0 1-.078-.762h-1.02c-.024.43.02.832.132 1.199M165.783 328.795c.02-.395.084-.768.192-1.115.108-.348.282-.643.522-.882.24-.24.576-.36 1.008-.36.432 0 .768.12 1.008.36.24.239.414.534.522.882.108.347.172.72.192 1.115.02.397.03.755.03 1.074 0 .209-.002.439-.006.69a6.03 6.03 0 0 1-.06.757 5.654 5.654 0 0 1-.156.738c-.068.239-.168.45-.3.63a1.543 1.543 0 0 1-.498.437c-.2.113-.444.168-.732.168s-.532-.055-.732-.168a1.543 1.543 0 0 1-.498-.437 1.966 1.966 0 0 1-.3-.63 5.654 5.654 0 0 1-.156-.738 6.03 6.03 0 0 1-.06-.756 43.796 43.796 0 0 1-.006-.691c0-.32.01-.677.03-1.074m-1.086 2.035c.016.336.056.664.12.983.064.32.156.625.276.913.12.288.284.54.492.756.208.215.47.387.786.516.316.127.694.192 1.134.192.44 0 .818-.065 1.134-.192.316-.13.578-.301.786-.516a2.42 2.42 0 0 0 .492-.756c.12-.288.212-.593.276-.913.064-.32.104-.647.12-.983a20.463 20.463 0 0 0 0-1.944 6.615 6.615 0 0 0-.12-.984 4.657 4.657 0 0 0-.276-.906 2.416 2.416 0 0 0-.492-.75 2.159 2.159 0 0 0-.78-.51c-.312-.125-.692-.186-1.14-.186-.44 0-.818.06-1.134.186a2.15 2.15 0 0 0-.786.51 2.416 2.416 0 0 0-.492.75c-.12.283-.212.586-.276.906-.064.32-.104.648-.12.984a20.413 20.413 0 0 0 0 1.944M176.332 329.684a2.303 2.303 0 0 1-.348.738 1.705 1.705 0 0 1-.6.516 1.825 1.825 0 0 1-.858.192c-.345 0-.637-.068-.877-.204a1.766 1.766 0 0 1-.588-.534 2.233 2.233 0 0 1-.33-.75 3.543 3.543 0 0 1-.102-.853c0-.303.036-.597.108-.88.071-.286.186-.536.342-.75a1.73 1.73 0 0 1 .606-.523c.248-.132.548-.198.9-.198.351 0 .646.068.882.204.236.136.425.315.57.54.144.224.248.48.312.768.064.289.097.584.097.888 0 .287-.038.57-.114.846m-3.666 2.202v-.841h.024c.168.345.43.595.792.75.36.157.756.235 1.188.235.48 0 .898-.088 1.254-.264a2.55 2.55 0 0 0 .887-.714c.236-.3.413-.646.534-1.038.12-.392.18-.81.18-1.248 0-.44-.058-.855-.174-1.248a2.933 2.933 0 0 0-.528-1.025 2.48 2.48 0 0 0-.888-.691c-.356-.168-.77-.252-1.242-.252-.152 0-.323.017-.51.048a2.814 2.814 0 0 0-.557.156c-.184.073-.358.17-.522.294a1.657 1.657 0 0 0-.414.462h-.024v-3.191h-1.02v8.567h1.02zM178.233 331.886h1.308l1.488-2.172 1.548 2.172h1.224l-2.136-2.856 2.4-3.348h-1.308l-1.728 2.568-1.728-2.568h-1.236l2.328 3.264-2.16 2.94zM335.633 348.65v-7.607h4.536v-.96h-5.676v8.567h1.14zM344.333 343.076a7.378 7.378 0 0 0-.654-.107 29.337 29.337 0 0 1-.69-.096 2.641 2.641 0 0 1-.625-.174 1.134 1.134 0 0 1-.449-.343c-.117-.147-.174-.35-.174-.606a.83.83 0 0 1 .102-.426.846.846 0 0 1 .264-.28 1.08 1.08 0 0 1 .384-.157c.148-.033.297-.049.45-.049.335 0 .624.047.864.138.24.092.435.208.588.348a1.4 1.4 0 0 1 .336.457c.071.163.108.317.108.461v1.045a1.283 1.283 0 0 0-.504-.21m1.428-3.126c-.264 0-.475.073-.63.221-.156.148-.234.39-.234.726a2.454 2.454 0 0 0-.978-.726 3.237 3.237 0 0 0-1.207-.22c-.279 0-.543.028-.79.09-.249.058-.468.16-.655.298-.188.14-.336.32-.444.541-.109.22-.162.486-.162.798 0 .351.06.64.18.864.12.223.277.405.474.545.196.14.42.246.671.318a7.8 7.8 0 0 0 .775.18c.28.056.546.098.798.127.252.027.473.067.666.12.192.052.343.128.456.227.111.1.168.246.168.438 0 .224-.042.404-.126.541a.876.876 0 0 1-.324.311 1.301 1.301 0 0 1-.445.144 3.353 3.353 0 0 1-.485.037c-.433 0-.792-.083-1.08-.246-.288-.164-.445-.475-.468-.93h-1.02c.016.383.096.707.24.971.143.264.336.48.575.643.24.164.517.281.828.353.313.072.641.108.984.108.281 0 .56-.02.834-.059.277-.04.527-.123.75-.246.225-.125.405-.299.54-.523.136-.223.205-.516.205-.876v-3.19c0-.24.013-.417.042-.53.028-.112.122-.168.282-.168.088 0 .191.02.312.06v-.792c-.177-.104-.42-.155-.732-.155M348.365 346.287v-1.309h.023c.249.504.553.876.913 1.117.36.24.816.351 1.369.335v-1.08c-.408 0-.756-.055-1.045-.168a1.643 1.643 0 0 1-.695-.492 2.023 2.023 0 0 1-.385-.786 4.244 4.244 0 0 1-.12-1.062v-2.76h-1.02v6.205h.96zM354.454 341.121c.236.14.426.323.57.551.145.228.25.486.32.774.067.288.1.576.1.864 0 .272-.03.54-.095.805a2.23 2.23 0 0 1-.307.713c-.14.213-.322.383-.545.51-.225.13-.496.193-.816.193-.329 0-.609-.062-.84-.186a1.63 1.63 0 0 1-.57-.499 2.126 2.126 0 0 1-.325-.719 3.514 3.514 0 0 1-.1-.853c0-.28.026-.559.083-.84.055-.28.152-.534.287-.762.136-.228.316-.412.541-.55.223-.142.504-.212.84-.212.336 0 .621.07.857.211m1.303-2.79c-.465-.505-1.193-.757-2.184-.757a4.23 4.23 0 0 0-.883.096 2.713 2.713 0 0 0-.816.312 1.914 1.914 0 0 0-.606.565 1.59 1.59 0 0 0-.263.851h1.02a.758.758 0 0 1 .174-.467c.108-.128.24-.232.396-.312.156-.08.326-.139.51-.175.183-.036.36-.053.527-.053.337 0 .621.058.852.173.232.117.425.276.576.481.152.203.262.45.331.738.067.287.102.604.102.947v.41h-.024a1.719 1.719 0 0 0-.798-.847 2.475 2.475 0 0 0-1.135-.27c-.464 0-.867.083-1.21.251a2.521 2.521 0 0 0-.866.68 2.887 2.887 0 0 0-.522.995 4.097 4.097 0 0 0-.173 1.205c0 .368.047.746.144 1.135.096.387.256.74.48 1.056.223.315.52.575.887.78.368.203.821.306 1.356.306a2.29 2.29 0 0 0 1.08-.259c.328-.172.584-.43.768-.774h.013v.89h.96v-5.678c0-1.015-.233-1.776-.696-2.28M362.134 344.463a1.746 1.746 0 0 1-.37.558 1.757 1.757 0 0 1-1.254.51c-.266 0-.504-.047-.716-.138a1.664 1.664 0 0 1-.546-.378 1.839 1.839 0 0 1-.36-.558 2.103 2.103 0 0 1-.155-.68h3.563c-.015.242-.07.469-.162.686m.246-3.984c-.464-.352-1.048-.528-1.752-.528-.496 0-.926.08-1.289.24-.365.16-.67.383-.918.67a2.851 2.851 0 0 0-.558 1.034c-.125.4-.195.836-.21 1.308 0 .47.071.904.215 1.295.145.393.346.733.606 1.02a2.757 2.757 0 0 0 2.095.913c.551 0 1.01-.114 1.374-.343.363-.228.656-.518.876-.87.22-.352.372-.735.456-1.151a4.94 4.94 0 0 0 .101-1.188h-4.643c-.009-.272.024-.53.095-.774a1.718 1.718 0 0 1 .96-1.099c.248-.111.54-.168.876-.168.433 0 .786.1 1.062.3.277.2.46.505.547.913h1.008c-.137-.696-.436-1.221-.9-1.572M365.357 346.287v-1.309h.023c.248.504.553.876.912 1.117.36.24.817.351 1.369.335v-1.08c-.41 0-.756-.055-1.044-.168a1.65 1.65 0 0 1-.697-.492 2.034 2.034 0 0 1-.383-.786 4.242 4.242 0 0 1-.12-1.062v-2.76h-1.021v6.205h.96zM318.257 330.986v.9h1.044v.924c0 .504.145.887.438 1.147.291.26.717.39 1.278.39.095 0 .206-.009.33-.025.124-.016.234-.039.33-.072v-.887a1.32 1.32 0 0 1-.288.065c-.105.012-.2.02-.288.02-.248 0-.44-.05-.576-.146-.136-.095-.204-.28-.204-.552v-.864h1.2v-.9h-1.2v-5.304h-1.02v5.304h-1.044zM323.328 327.777c.1-.293.237-.537.414-.732a1.796 1.796 0 0 1 1.367-.607c.264 0 .514.052.75.156.237.105.442.254.618.451.176.195.314.44.415.732.1.291.149.625.149 1.002 0 .375-.05.71-.15 1.002a2.185 2.185 0 0 1-.414.737c-.176.2-.381.353-.618.456a1.84 1.84 0 0 1-.75.156c-.263 0-.513-.052-.75-.156a1.747 1.747 0 0 1-.617-.456 2.15 2.15 0 0 1-.414-.737 3.068 3.068 0 0 1-.15-1.002c0-.377.049-.71.15-1.002m-1.04 2.28c.13.396.32.74.577 1.031.256.292.572.523.948.691.376.168.808.252 1.296.252.496 0 .93-.084 1.303-.252.37-.168.686-.399.94-.69.257-.292.449-.636.578-1.033a4.13 4.13 0 0 0 .19-1.277c0-.457-.062-.88-.19-1.273a2.93 2.93 0 0 0-.577-1.026 2.656 2.656 0 0 0-.941-.683c-.373-.165-.807-.247-1.303-.247-.488 0-.92.082-1.296.247a2.647 2.647 0 0 0-.948.683 2.928 2.928 0 0 0-.576 1.026 4.107 4.107 0 0 0-.191 1.273c0 .455.064.881.19 1.277M330.246 331.887v-1.31h.023c.248.505.553.878.913 1.119.359.239.816.35 1.368.336v-1.081c-.408 0-.756-.056-1.044-.167a1.669 1.669 0 0 1-.697-.493 2.046 2.046 0 0 1-.383-.787 4.222 4.222 0 0 1-.12-1.061v-2.76h-1.021v6.204h.96zM339.136 325.683v6.097h-2.207v.815c.287 0 .567.023.84.066.271.044.517.127.738.246.22.12.405.284.558.492.151.208.256.473.311.792h.78v-8.508h-1.02zM343.217 332.379c.112.367.286.685.522.953.236.269.53.479.881.63.353.152.752.228 1.201.228.368 0 .713-.053 1.038-.161.324-.11.606-.264.845-.468.241-.204.431-.458.571-.762.14-.305.211-.656.211-1.057 0-.375-.059-.707-.175-.996a2.874 2.874 0 0 0-.462-.773 3.845 3.845 0 0 0-.66-.618 12.566 12.566 0 0 0-.768-.53c-.264-.16-.528-.316-.793-.472a6.174 6.174 0 0 1-.724-.498 3.305 3.305 0 0 1-.565-.57 1.63 1.63 0 0 1-.307-.703h4.37v-.9h-5.557c.04.505.13.935.27 1.29.14.356.318.667.534.93.215.264.46.497.732.697.272.2.556.387.852.563.36.225.676.43.948.619.271.188.498.377.678.57.18.192.316.399.408.624.092.224.14.484.14.779 0 .232-.046.443-.134.63a1.56 1.56 0 0 1-.354.487c-.148.135-.322.24-.522.312a1.892 1.892 0 0 1-.636.108c-.297 0-.55-.062-.762-.186a1.6 1.6 0 0 1-.522-.486 2.035 2.035 0 0 1-.294-.68 2.838 2.838 0 0 1-.078-.76h-1.02c-.024.432.02.832.132 1.2M350.843 328.797c.02-.396.084-.768.191-1.116.11-.35.283-.642.523-.882.24-.24.575-.36 1.008-.36.432 0 .768.12 1.008.36s.414.533.522.882c.107.348.172.72.191 1.116a21.562 21.562 0 0 1 .025 1.764 5.823 5.823 0 0 1-.216 1.494c-.068.24-.168.449-.3.63-.132.18-.298.325-.499.438a1.482 1.482 0 0 1-.73.168c-.289 0-.534-.057-.733-.168a1.537 1.537 0 0 1-.498-.438 1.968 1.968 0 0 1-.3-.63 5.823 5.823 0 0 1-.216-1.494 43.877 43.877 0 0 1-.006-.69c0-.32.01-.678.03-1.074m-1.086 2.033c.016.336.056.664.12.985.064.32.155.624.276.912.12.288.284.54.492.756.208.216.47.388.786.515.316.129.693.193 1.134.193.44 0 .817-.064 1.133-.193a2.22 2.22 0 0 0 .787-.515 2.42 2.42 0 0 0 .492-.756c.12-.288.212-.592.276-.912.064-.321.104-.65.12-.985a19.23 19.23 0 0 0 0-1.943 6.514 6.514 0 0 0-.12-.985 4.679 4.679 0 0 0-.276-.906 2.463 2.463 0 0 0-.492-.75 2.194 2.194 0 0 0-.78-.51c-.312-.123-.692-.185-1.14-.185-.44 0-.818.062-1.134.185a2.18 2.18 0 0 0-.786.51 2.463 2.463 0 0 0-.492.75 4.68 4.68 0 0 0-.277.906 6.78 6.78 0 0 0-.119.985 19.208 19.208 0 0 0 0 1.943M361.391 329.685a2.265 2.265 0 0 1-.349.738 1.702 1.702 0 0 1-.599.516 1.825 1.825 0 0 1-.858.192c-.344 0-.636-.068-.877-.204a1.755 1.755 0 0 1-.588-.534 2.271 2.271 0 0 1-.33-.75 3.623 3.623 0 0 1 .006-1.734 2.22 2.22 0 0 1 .342-.75c.156-.216.358-.39.607-.522.248-.133.547-.198.9-.198.351 0 .645.067.882.204.236.136.425.317.57.54.144.224.248.48.312.769.063.287.096.584.096.886 0 .289-.039.57-.114.847m-3.666 2.202v-.84h.024c.168.344.432.594.791.75.361.157.756.235 1.19.235.478 0 .896-.09 1.253-.265.356-.177.651-.414.887-.714.237-.301.414-.646.535-1.038.12-.392.18-.808.18-1.248 0-.44-.058-.856-.174-1.248a2.949 2.949 0 0 0-.529-1.026 2.488 2.488 0 0 0-.887-.69c-.357-.168-.77-.252-1.242-.252a3.066 3.066 0 0 0-1.068.203c-.184.073-.358.17-.522.295a1.63 1.63 0 0 0-.414.462h-.024v-3.192h-1.02v8.568h1.02zM363.292 331.887h1.31l1.486-2.172 1.548 2.172h1.224l-2.136-2.855 2.4-3.35h-1.309l-1.727 2.568-1.728-2.567h-1.236l2.328 3.265-2.16 2.939zM379.193 329.127v-.816h-2.616v-2.628h-.816v2.628h-2.616v.816h2.616v2.627h.816v-2.627h2.616z"/><path fill="#fff" fill-rule="evenodd" d="M152.608 168.545c-8.995 0-16.288-7.293-16.288-16.29 0-7.197 4.667-13.302 11.14-15.457.815-.149 1.112.354 1.112.786 0 .386-.014 1.411-.022 2.77-4.53-.984-5.487 2.184-5.487 2.184-.74 1.882-1.809 2.383-1.809 2.383-1.479 1.01.112.99.112.99 1.635-.115 2.495-1.679 2.495-1.679 1.453-2.489 3.813-1.77 4.741-1.353.148 1.052.568 1.77 1.034 2.177-3.617.411-7.42 1.81-7.42 8.051 0 1.778.635 3.232 1.677 4.371-.168.412-.727 2.068.16 4.311 0 0 1.367.438 4.48-1.67a15.56 15.56 0 0 0 4.077.548 15.582 15.582 0 0 0 4.078-.548c3.11 2.108 4.475 1.67 4.475 1.67.89-2.243.33-3.899.162-4.31 1.044-1.14 1.675-2.594 1.675-4.372 0-6.258-3.809-7.635-7.438-8.038.585-.503 1.106-1.497 1.106-3.017 0-2.177-.02-3.934-.02-4.468 0-.436.293-.943 1.12-.784 6.468 2.16 11.131 8.26 11.131 15.455 0 8.997-7.294 16.29-16.29 16.29M350.609 217.555c-33.347 0-60.388-27.035-60.388-60.388 0-26.68 17.303-49.316 41.297-57.301 3.018-.56 4.126 1.31 4.126 2.905 0 1.439-.056 6.197-.082 11.243-16.8-3.653-20.345 7.125-20.345 7.125-2.747 6.979-6.705 8.836-6.705 8.836-5.48 3.748.413 3.67.413 3.67 6.064-.425 9.257-6.223 9.257-6.223 5.386-9.231 14.127-6.562 17.573-5.02.543 3.903 2.107 6.568 3.834 8.076-13.413 1.526-27.513 6.705-27.513 29.844 0 6.592 2.359 11.979 6.222 16.208-.627 1.522-2.694 7.664.586 15.982 0 0 5.07 1.622 16.61-6.191 4.817 1.338 9.983 2.009 15.115 2.033 5.132-.024 10.302-.695 15.128-2.033 11.526 7.813 16.59 6.19 16.59 6.19 3.287-8.317 1.22-14.46.593-15.981 3.872-4.23 6.214-9.616 6.214-16.208 0-23.195-14.127-28.301-27.574-29.796 2.166-1.874 4.096-5.55 4.096-11.183 0-8.08-.07-14.583-.07-16.572 0-1.608 1.087-3.491 4.148-2.898 23.982 7.994 41.263 30.622 41.263 57.294 0 33.353-27.037 60.388-60.388 60.388"/><path fill="#fff" d="M313.093 130.851c-.133-.3-.605-.39-1.035-.184-.439.197-.684.606-.542.907.13.308.602.394 1.04.188.438-.197.688-.61.537-.91M315.54 128.123c-.289-.267-.853-.143-1.234.279-.396.421-.469.985-.177 1.255.297.267.843.142 1.238-.279.396-.426.473-.985.172-1.255M317.92 124.645c-.37-.257-.976-.016-1.35.52-.37.538-.37 1.182.01 1.44.373.258.97.025 1.35-.507.368-.546.368-1.19-.01-1.453M321.182 121.285c-.33-.365-1.036-.267-1.552.231-.528.487-.675 1.178-.344 1.543.336.366 1.045.263 1.565-.23.524-.487.683-1.183.331-1.544M325.682 119.334c-.147-.473-.825-.687-1.509-.486-.683.207-1.13.76-.992 1.238.142.477.824.7 1.513.485.682-.206 1.13-.756.988-1.237M330.625 118.973c.017-.498-.563-.911-1.281-.92-.722-.017-1.307.387-1.315.877 0 .503.568.91 1.289.924.718.014 1.307-.387 1.307-.881M335.223 119.755c.086-.485-.413-.984-1.126-1.117-.7-.13-1.35.172-1.439.653-.087.498.42.997 1.121 1.126.714.124 1.353-.168 1.444-.662"/><path fill="none" stroke="#3a7fc3" stroke-linecap="round" stroke-miterlimit="10" d="M224.898 223.488v-.5"/><path fill="none" stroke="#3a7fc3" stroke-dasharray="1 2" stroke-linecap="round" stroke-miterlimit="10" d="M224.898 220.988V86.995"/><path fill="none" stroke="#3a7fc3" stroke-linecap="round" stroke-miterlimit="10" d="M224.898 85.995v-.5"/><path fill="#fff" d="M133.276 71.48c-.38.275-.866.413-1.458.413-.24 0-.476-.023-.708-.07a1.903 1.903 0 0 1-.618-.241 1.263 1.263 0 0 1-.432-.451c-.108-.187-.162-.422-.162-.701 0-.264.078-.478.234-.642.156-.165.364-.298.624-.402.26-.104.554-.19.882-.26.328-.066.662-.14 1.002-.22.34-.08.674-.174 1.002-.283.328-.107.622-.253.882-.437s.468-.416.624-.695c.156-.282.234-.633.234-1.057 0-.456-.102-.846-.306-1.17a2.518 2.518 0 0 0-.786-.792 3.42 3.42 0 0 0-1.074-.444 5.209 5.209 0 0 0-2.544.042c-.428.12-.804.302-1.128.546-.324.244-.58.556-.768.936-.188.38-.282.829-.282 1.35h1.08c0-.361.07-.67.21-.93a1.9 1.9 0 0 1 .552-.642c.228-.167.494-.292.798-.373.304-.08.616-.12.936-.12.256 0 .514.025.774.074.26.046.494.128.702.246.208.115.376.273.504.472.128.2.192.456.192.768 0 .297-.078.537-.234.72a1.731 1.731 0 0 1-.624.45c-.26.117-.554.21-.882.283l-1.002.223c-.34.075-.674.163-1.002.263-.328.1-.622.232-.882.396s-.468.376-.624.636c-.156.259-.234.586-.234.978 0 .431.088.805.264 1.121.176.317.41.576.702.78.292.205.624.357.996.457.372.1.754.15 1.146.15.44 0 .848-.053 1.224-.156.376-.104.706-.268.99-.493.284-.223.508-.505.672-.845.164-.34.254-.746.27-1.218h-1.08c-.064.616-.286 1.062-.666 1.338M137.554 70.285v-.912h.024c.464.705 1.132 1.057 2.004 1.057.384 0 .732-.08 1.044-.24.312-.16.532-.432.66-.817.208.336.482.596.822.78.34.185.714.277 1.122.277.312 0 .594-.035.846-.102a1.77 1.77 0 0 0 .648-.318c.18-.145.32-.33.42-.559.1-.228.15-.502.15-.822v-4.547h-1.02v4.067c0 .193-.016.372-.048.54a1.097 1.097 0 0 1-.18.438.9.9 0 0 1-.366.295c-.156.072-.358.107-.606.107-.504 0-.9-.143-1.188-.43-.288-.29-.432-.673-.432-1.154v-3.863h-1.02v4.067c0 .2-.018.384-.054.552a1.171 1.171 0 0 1-.186.438.871.871 0 0 1-.354.29 1.373 1.373 0 0 1-.57.1c-.296 0-.55-.059-.762-.18a1.724 1.724 0 0 1-.894-1.404v-3.863h-1.02v6.203h.96zM150.166 67.076a7.313 7.313 0 0 0-.654-.108c-.228-.029-.458-.06-.69-.097a2.494 2.494 0 0 1-.624-.174 1.126 1.126 0 0 1-.45-.342c-.116-.148-.174-.349-.174-.605 0-.168.034-.31.102-.426a.844.844 0 0 1 .264-.283c.108-.07.236-.123.384-.155a2.06 2.06 0 0 1 .45-.048c.336 0 .624.045.864.137.24.092.436.208.588.35.152.138.264.29.336.454.072.164.108.318.108.463v1.043a1.255 1.255 0 0 0-.504-.209m1.428-3.127c-.264 0-.474.074-.63.223-.156.147-.234.39-.234.725a2.428 2.428 0 0 0-.978-.725 3.213 3.213 0 0 0-1.206-.223c-.28 0-.544.03-.792.09s-.466.16-.654.301a1.456 1.456 0 0 0-.444.54c-.108.22-.162.485-.162.798 0 .351.06.64.18.863.12.224.278.406.474.547.196.14.42.246.672.318.252.071.51.131.774.18.28.055.546.097.798.125.252.028.474.068.666.121.192.051.344.127.456.227.112.101.168.246.168.44 0 .222-.042.402-.126.538a.857.857 0 0 1-.324.312c-.132.073-.28.121-.444.145a3.498 3.498 0 0 1-.486.035c-.432 0-.792-.082-1.08-.246-.288-.164-.444-.474-.468-.93h-1.02c.016.384.096.708.24.973.144.264.336.478.576.642.24.163.516.282.828.354.312.071.64.108.984.108.28 0 .558-.02.834-.06.276-.04.526-.122.75-.247a1.43 1.43 0 0 0 .54-.522c.136-.224.204-.515.204-.876v-3.192c0-.24.014-.416.042-.527.028-.113.122-.168.282-.168.088 0 .192.02.312.06v-.793c-.176-.103-.42-.156-.732-.156M154.354 64.082h-1.02v8.567h1.02v-8.567zM157.017 64.082h-1.02v8.567h1.02v-8.567zM101.854 54.986v.9h1.044v.923c0 .504.146.886.438 1.146.292.26.718.39 1.278.39.096 0 .206-.007.33-.023.124-.017.234-.04.33-.072v-.889a1.214 1.214 0 0 1-.288.066c-.104.012-.2.018-.288.018-.248 0-.44-.048-.576-.144-.136-.096-.204-.28-.204-.55v-.866h1.2v-.899h-1.2v-5.305h-1.02v5.305h-1.044zM106.924 51.775c.1-.292.238-.535.414-.732.176-.196.382-.346.618-.45.236-.103.486-.156.75-.156s.514.053.75.156c.236.104.442.254.618.45.176.197.314.44.414.732.1.292.15.626.15 1.002 0 .377-.05.71-.15 1.002-.1.293-.238.538-.414.738a1.775 1.775 0 0 1-.618.456 1.823 1.823 0 0 1-.75.156c-.264 0-.514-.05-.75-.156a1.775 1.775 0 0 1-.618-.456 2.153 2.153 0 0 1-.414-.738c-.1-.292-.15-.625-.15-1.002 0-.376.05-.71.15-1.002m-1.038 2.28c.128.396.32.74.576 1.033.256.291.572.521.948.69.376.167.808.251 1.296.251.496 0 .93-.084 1.302-.252.372-.168.686-.398.942-.689.256-.293.448-.637.576-1.033.128-.395.192-.822.192-1.278 0-.455-.064-.88-.192-1.272a2.904 2.904 0 0 0-.576-1.026 2.662 2.662 0 0 0-.942-.684c-.372-.164-.806-.246-1.302-.246-.488 0-.92.082-1.296.246a2.65 2.65 0 0 0-.948.684 2.904 2.904 0 0 0-.576 1.026 4.08 4.08 0 0 0-.192 1.272c0 .456.064.883.192 1.278M113.842 55.886v-1.308h.024c.248.504.552.875.912 1.116.36.24.816.35 1.368.336v-1.08c-.408 0-.756-.056-1.044-.168a1.64 1.64 0 0 1-.696-.493 2.017 2.017 0 0 1-.384-.785 4.242 4.242 0 0 1-.12-1.062v-2.76h-1.02v6.204h.96zM122.733 49.682v6.096h-2.208v.816c.288 0 .568.022.84.067.272.042.518.125.738.246.22.119.406.283.558.49.152.209.256.473.312.793h.78v-8.508h-1.02zM128.83 54.103c-.217-.1-.4-.236-.553-.408a1.68 1.68 0 0 1-.34-.612 2.403 2.403 0 0 1-.115-.75c0-.263.04-.51.12-.744.08-.232.194-.43.342-.599.148-.168.332-.303.552-.403.22-.1.47-.15.75-.15s.526.05.738.15c.212.1.39.24.534.414.144.177.254.379.33.607.076.228.114.467.114.715 0 .263-.034.513-.102.75a1.656 1.656 0 0 1-.318.61 1.584 1.584 0 0 1-.54.415 1.724 1.724 0 0 1-.756.156c-.288 0-.54-.05-.756-.15m1.848 2.838c-.248.232-.576.348-.984.348-.432 0-.78-.106-1.044-.318a2.161 2.161 0 0 1-.618-.804 3.883 3.883 0 0 1-.306-1.05 8.603 8.603 0 0 1-.096-1.056l.024-.024c.24.392.538.675.894.852.356.176.766.265 1.23.265.408 0 .774-.071 1.098-.211.324-.14.596-.334.816-.582.22-.248.39-.54.51-.875.12-.337.18-.701.18-1.093a3.54 3.54 0 0 0-.144-.972 2.61 2.61 0 0 0-.474-.918 2.52 2.52 0 0 0-.876-.683c-.364-.181-.814-.271-1.35-.271-.632 0-1.14.128-1.524.384a2.62 2.62 0 0 0-.888.984c-.208.4-.346.84-.414 1.32a9.9 9.9 0 0 0-.102 1.392c0 .583.05 1.15.15 1.699.1.546.27 1.033.51 1.457.24.423.56.763.96 1.02.4.256.904.384 1.512.384.704 0 1.264-.186 1.68-.558.416-.372.656-.91.72-1.614h-1.02c-.049.385-.197.69-.445.924M138.316 53.684a2.303 2.303 0 0 1-.348.738 1.705 1.705 0 0 1-.6.516 1.825 1.825 0 0 1-.858.192c-.344 0-.636-.068-.876-.204a1.766 1.766 0 0 1-.588-.534 2.233 2.233 0 0 1-.33-.75 3.549 3.549 0 0 1-.102-.853c0-.303.036-.597.108-.88.07-.286.186-.536.34-.75.158-.217.359-.391.608-.523.247-.132.548-.198.9-.198.35 0 .646.068.882.204.236.136.425.315.569.54.145.224.249.48.312.768.064.289.097.584.097.888 0 .287-.038.57-.114.846m-3.666 2.202v-.841h.024c.168.345.43.595.792.75.36.156.756.235 1.188.235.48 0 .898-.088 1.254-.264a2.55 2.55 0 0 0 .888-.714c.236-.3.413-.646.534-1.038.12-.392.18-.81.18-1.248 0-.44-.058-.856-.175-1.248a2.914 2.914 0 0 0-.527-1.025 2.49 2.49 0 0 0-.888-.691c-.357-.168-.771-.252-1.242-.252-.153 0-.323.017-.511.048a2.805 2.805 0 0 0-.557.156c-.184.072-.36.17-.522.294a1.643 1.643 0 0 0-.414.462h-.024v-3.191h-1.02v8.567h1.02zM140.217 55.886h1.308l1.488-2.172 1.548 2.172h1.224l-2.136-2.856 2.4-3.348h-1.308l-1.728 2.568-1.728-2.568h-1.236l2.328 3.264-2.16 2.94zM150.225 52.537h-3.468v.961h3.468v-.961zM154.077 49.682v6.096h-2.208v.816c.288 0 .568.022.84.067.272.042.518.125.738.246.22.119.406.283.558.49.152.209.256.473.312.793h.78v-8.508h-1.02zM158.157 56.377c.112.369.286.686.522.955.236.268.53.478.882.629a3 3 0 0 0 1.2.228c.368 0 .714-.053 1.038-.162.324-.107.606-.263.846-.467.24-.204.43-.458.57-.762a2.5 2.5 0 0 0 .21-1.056c0-.377-.058-.71-.174-.996a2.834 2.834 0 0 0-.462-.774 3.845 3.845 0 0 0-.66-.618c-.248-.184-.504-.36-.768-.528-.264-.16-.528-.318-.792-.474a6.507 6.507 0 0 1-.726-.498 3.268 3.268 0 0 1-.564-.571 1.603 1.603 0 0 1-.306-.701h4.368v-.9h-5.556c.04.504.13.933.27 1.29.14.356.318.666.534.93.216.264.46.495.732.696.272.199.556.387.852.564.36.224.676.43.948.617a4.2 4.2 0 0 1 .678.57c.18.192.316.4.408.625.092.223.138.483.138.78a1.49 1.49 0 0 1-1.008 1.428c-.2.072-.412.107-.636.107a1.48 1.48 0 0 1-.762-.185 1.602 1.602 0 0 1-.522-.487 2.025 2.025 0 0 1-.294-.677 2.887 2.887 0 0 1-.078-.762h-1.02c-.024.43.02.832.132 1.199M165.783 52.795c.02-.396.084-.768.192-1.115.108-.348.282-.643.522-.882.24-.24.576-.36 1.008-.36.432 0 .768.12 1.008.36.24.239.414.534.522.882.108.347.172.719.192 1.115.02.396.03.755.03 1.074 0 .209-.002.439-.006.69a6 6 0 0 1-.216 1.495c-.068.239-.168.45-.3.63a1.543 1.543 0 0 1-.498.437c-.2.112-.444.168-.732.168s-.532-.056-.732-.168a1.543 1.543 0 0 1-.498-.437 1.966 1.966 0 0 1-.3-.63 6 6 0 0 1-.216-1.494 43.796 43.796 0 0 1-.006-.691c0-.32.01-.678.03-1.074m-1.086 2.035c.016.336.056.664.12.983.064.32.156.625.276.913.12.288.284.54.492.755.208.216.47.388.786.517.316.127.694.192 1.134.192.44 0 .818-.065 1.134-.192.316-.13.578-.301.786-.517.208-.215.372-.467.492-.755s.212-.593.276-.913c.064-.32.104-.647.12-.983a20.463 20.463 0 0 0 0-1.944 6.615 6.615 0 0 0-.12-.984 4.657 4.657 0 0 0-.276-.906 2.416 2.416 0 0 0-.492-.75 2.159 2.159 0 0 0-.78-.51c-.312-.125-.692-.186-1.14-.186-.44 0-.818.06-1.134.186a2.15 2.15 0 0 0-.786.51 2.416 2.416 0 0 0-.492.75c-.12.283-.212.586-.276.906-.064.32-.104.648-.12.984a20.413 20.413 0 0 0 0 1.944M176.332 53.684a2.303 2.303 0 0 1-.348.738 1.705 1.705 0 0 1-.6.516 1.825 1.825 0 0 1-.858.192c-.345 0-.637-.068-.877-.204a1.766 1.766 0 0 1-.588-.534 2.233 2.233 0 0 1-.33-.75 3.549 3.549 0 0 1-.102-.853c0-.303.036-.597.108-.88.071-.286.186-.536.342-.75a1.73 1.73 0 0 1 .606-.523c.248-.132.548-.198.9-.198.351 0 .646.068.882.204.236.136.425.315.57.54.144.224.248.48.312.768.064.289.097.584.097.888 0 .287-.038.57-.114.846m-3.666 2.202v-.841h.024c.168.345.43.595.792.75.36.156.756.235 1.188.235.48 0 .898-.088 1.254-.264a2.55 2.55 0 0 0 .887-.714c.236-.3.413-.646.534-1.038.12-.392.18-.81.18-1.248 0-.44-.058-.856-.174-1.248a2.933 2.933 0 0 0-.528-1.025 2.48 2.48 0 0 0-.888-.691c-.356-.168-.77-.252-1.242-.252-.152 0-.323.017-.51.048a2.814 2.814 0 0 0-.557.156 2.18 2.18 0 0 0-.522.294 1.643 1.643 0 0 0-.414.462h-.024v-3.191h-1.02v8.567h1.02zM178.233 55.886h1.308l1.488-2.172 1.548 2.172h1.224l-2.136-2.856 2.4-3.348h-1.308l-1.728 2.568-1.728-2.568h-1.236l2.328 3.264-2.16 2.94zM335.633 72.65v-7.607h4.536v-.96h-5.676v8.567h1.14zM344.333 67.076a7.378 7.378 0 0 0-.654-.107 29.337 29.337 0 0 1-.69-.096 2.641 2.641 0 0 1-.625-.174 1.134 1.134 0 0 1-.449-.343c-.117-.147-.174-.35-.174-.606a.83.83 0 0 1 .102-.426.846.846 0 0 1 .264-.28 1.08 1.08 0 0 1 .384-.157c.148-.033.297-.049.45-.049.335 0 .624.047.864.138.24.092.435.208.588.348a1.4 1.4 0 0 1 .336.457c.071.163.108.317.108.461v1.045a1.283 1.283 0 0 0-.504-.21m1.428-3.126c-.264 0-.475.073-.63.221-.156.148-.234.39-.234.726a2.454 2.454 0 0 0-.978-.726 3.237 3.237 0 0 0-1.207-.22c-.279 0-.543.028-.79.09-.249.058-.468.16-.655.298-.188.14-.336.32-.444.541-.109.22-.162.486-.162.798 0 .351.06.64.18.864.12.223.277.405.474.545.196.14.42.246.671.318a7.8 7.8 0 0 0 .775.18c.28.056.546.098.798.127.252.027.473.067.666.12.192.052.343.128.456.227.111.1.168.246.168.438 0 .224-.042.404-.126.541a.876.876 0 0 1-.324.311 1.301 1.301 0 0 1-.445.144 3.353 3.353 0 0 1-.485.037c-.433 0-.792-.083-1.08-.246-.288-.164-.445-.475-.468-.93h-1.02c.016.383.096.707.24.971.143.264.336.48.575.643.24.164.517.281.828.353.313.072.641.108.984.108.281 0 .56-.02.834-.059.277-.04.527-.123.75-.246.225-.125.405-.299.54-.523.136-.223.205-.516.205-.876v-3.19c0-.24.013-.417.042-.53.028-.112.122-.168.282-.168.088 0 .191.02.312.06v-.792c-.177-.104-.42-.155-.732-.155M348.365 70.287v-1.309h.023c.249.504.553.876.913 1.117.36.24.816.351 1.369.335v-1.08c-.408 0-.756-.055-1.045-.168a1.643 1.643 0 0 1-.695-.492 2.023 2.023 0 0 1-.385-.786 4.244 4.244 0 0 1-.12-1.062v-2.76h-1.02v6.205h.96zM354.454 65.121c.236.14.426.323.57.551.145.228.25.486.32.774.067.288.1.576.1.864 0 .272-.03.54-.095.805a2.23 2.23 0 0 1-.307.713c-.14.213-.322.383-.545.51-.225.13-.496.193-.816.193-.329 0-.609-.062-.84-.186a1.63 1.63 0 0 1-.57-.499 2.126 2.126 0 0 1-.325-.719 3.514 3.514 0 0 1-.1-.853c0-.28.026-.559.083-.84.055-.28.152-.534.287-.762.136-.228.316-.412.541-.55.223-.142.504-.212.84-.212.336 0 .621.07.857.211m1.303-2.79c-.465-.505-1.193-.757-2.184-.757a4.23 4.23 0 0 0-.883.096 2.713 2.713 0 0 0-.816.312 1.914 1.914 0 0 0-.606.565 1.59 1.59 0 0 0-.263.851h1.02a.763.763 0 0 1 .174-.468c.108-.127.24-.23.396-.31.156-.08.326-.14.51-.176.183-.036.36-.054.527-.054.337 0 .621.06.852.174.232.116.425.276.576.481.152.203.262.45.331.738.067.287.102.604.102.947v.41h-.024a1.719 1.719 0 0 0-.798-.847 2.475 2.475 0 0 0-1.135-.27c-.464 0-.867.083-1.21.251a2.521 2.521 0 0 0-.866.68 2.887 2.887 0 0 0-.522.995 4.097 4.097 0 0 0-.173 1.205c0 .368.047.746.144 1.135.096.387.256.74.48 1.056.223.315.52.575.887.78.368.203.821.305 1.356.305a2.29 2.29 0 0 0 1.08-.258c.328-.172.584-.43.768-.774h.013v.89h.96V64.61c0-1.015-.233-1.776-.696-2.28M362.134 68.463a1.746 1.746 0 0 1-.37.558 1.757 1.757 0 0 1-1.254.51c-.266 0-.504-.047-.716-.138a1.664 1.664 0 0 1-.546-.378 1.839 1.839 0 0 1-.36-.558 2.103 2.103 0 0 1-.155-.68h3.563c-.015.242-.07.469-.162.686m.246-3.984c-.464-.352-1.048-.528-1.752-.528-.496 0-.926.08-1.289.239a2.538 2.538 0 0 0-.918.672 2.851 2.851 0 0 0-.558 1.033c-.125.4-.195.836-.21 1.308 0 .47.071.903.215 1.295.145.393.346.733.606 1.02.26.289.568.512.925.672a2.8 2.8 0 0 0 1.17.24c.551 0 1.01-.113 1.374-.342.363-.228.656-.518.876-.87.22-.352.372-.735.456-1.151a4.94 4.94 0 0 0 .101-1.188h-4.643c-.009-.273.024-.53.095-.774a1.718 1.718 0 0 1 .96-1.099c.248-.111.54-.168.876-.168.433 0 .786.1 1.062.3.277.2.46.505.547.913h1.008c-.137-.696-.436-1.221-.9-1.572M365.357 70.287v-1.309h.023c.248.504.553.876.912 1.117.36.24.817.351 1.369.335v-1.08c-.41 0-.756-.055-1.044-.168a1.65 1.65 0 0 1-.697-.492 2.034 2.034 0 0 1-.383-.786 4.242 4.242 0 0 1-.12-1.062v-2.76h-1.021v6.205h.96zM318.257 54.986v.9h1.044v.924c0 .504.145.887.438 1.147.291.26.717.39 1.278.39.095 0 .206-.009.33-.025.124-.016.234-.039.33-.072v-.887a1.32 1.32 0 0 1-.288.065c-.105.012-.2.02-.288.02-.248 0-.44-.05-.576-.146-.136-.095-.204-.28-.204-.552v-.864h1.2v-.9h-1.2v-5.304h-1.02v5.304h-1.044zM323.328 51.777c.1-.293.237-.537.414-.732a1.796 1.796 0 0 1 1.367-.607c.264 0 .514.052.75.156.237.105.442.254.618.451.176.195.314.44.415.732.1.291.149.625.149 1.002 0 .375-.05.71-.15 1.002a2.185 2.185 0 0 1-.414.737c-.176.2-.381.353-.618.456a1.84 1.84 0 0 1-.75.157c-.263 0-.513-.053-.75-.157a1.747 1.747 0 0 1-.617-.456 2.15 2.15 0 0 1-.414-.737 3.068 3.068 0 0 1-.15-1.002c0-.377.049-.71.15-1.002m-1.04 2.28c.13.396.32.74.577 1.031.256.293.572.523.948.691.376.168.808.252 1.296.252.496 0 .93-.084 1.303-.252.37-.168.686-.398.94-.69.257-.292.449-.636.578-1.033a4.13 4.13 0 0 0 .19-1.277c0-.457-.062-.88-.19-1.272a2.926 2.926 0 0 0-.577-1.027 2.656 2.656 0 0 0-.941-.683c-.373-.165-.807-.247-1.303-.247-.488 0-.92.082-1.296.247a2.647 2.647 0 0 0-.948.683 2.923 2.923 0 0 0-.576 1.027 4.096 4.096 0 0 0-.191 1.272c0 .455.064.881.19 1.277M330.246 55.887v-1.31h.023c.248.505.553.878.913 1.119.359.239.816.35 1.368.336V54.95c-.408 0-.756-.056-1.044-.168a1.658 1.658 0 0 1-.697-.492 2.046 2.046 0 0 1-.383-.787 4.222 4.222 0 0 1-.12-1.061v-2.76h-1.021v6.204h.96zM339.136 49.683v6.097h-2.207v.815c.287 0 .567.023.84.065.271.045.517.128.738.247.22.12.405.284.558.492.151.208.256.473.311.792h.78v-8.508h-1.02zM343.217 56.379c.112.367.286.686.522.953.236.269.53.479.881.63.353.152.752.228 1.201.228.368 0 .713-.053 1.038-.161.324-.11.606-.264.845-.468.241-.205.431-.458.571-.762.14-.305.211-.656.211-1.057 0-.375-.059-.707-.175-.996a2.874 2.874 0 0 0-.462-.773 3.845 3.845 0 0 0-.66-.618 12.566 12.566 0 0 0-.768-.53c-.264-.16-.528-.316-.793-.472a6.174 6.174 0 0 1-.724-.498 3.305 3.305 0 0 1-.565-.57 1.63 1.63 0 0 1-.307-.703h4.37v-.9h-5.557c.04.505.13.935.27 1.29.14.356.318.667.534.93.215.264.46.497.732.697.272.2.556.387.852.563.36.225.676.43.948.619.271.188.498.377.678.57.18.192.316.399.408.624.092.224.14.484.14.779 0 .232-.046.443-.134.63a1.56 1.56 0 0 1-.354.487c-.148.135-.322.24-.522.312a1.892 1.892 0 0 1-.636.108c-.297 0-.55-.062-.762-.186a1.6 1.6 0 0 1-.522-.486 2.044 2.044 0 0 1-.294-.68 2.838 2.838 0 0 1-.078-.76h-1.02c-.024.432.02.832.132 1.2M350.843 52.797c.02-.396.084-.768.191-1.116.11-.35.283-.642.523-.882.24-.24.575-.36 1.008-.36.432 0 .768.12 1.008.36s.414.533.522.882c.107.348.172.72.191 1.116a21.562 21.562 0 0 1 .025 1.764 5.823 5.823 0 0 1-.216 1.494c-.068.24-.168.449-.3.63-.132.18-.298.325-.499.438a1.482 1.482 0 0 1-.73.168c-.289 0-.534-.057-.733-.168a1.537 1.537 0 0 1-.498-.438 1.968 1.968 0 0 1-.3-.63 5.823 5.823 0 0 1-.216-1.494 43.877 43.877 0 0 1-.006-.69c0-.32.01-.678.03-1.074m-1.086 2.033c.016.336.056.664.12.985.064.32.155.624.276.912.12.288.284.54.492.756.208.216.47.388.786.515.316.129.693.193 1.134.193.44 0 .817-.064 1.133-.193a2.22 2.22 0 0 0 .787-.515 2.42 2.42 0 0 0 .492-.756c.12-.288.212-.592.276-.912.064-.321.104-.65.12-.985a19.23 19.23 0 0 0 0-1.943 6.514 6.514 0 0 0-.12-.985 4.679 4.679 0 0 0-.276-.906 2.463 2.463 0 0 0-.492-.75 2.207 2.207 0 0 0-.78-.51c-.312-.123-.692-.185-1.14-.185-.44 0-.818.062-1.134.185a2.193 2.193 0 0 0-.786.51 2.463 2.463 0 0 0-.492.75 4.68 4.68 0 0 0-.277.906 6.78 6.78 0 0 0-.119.985 19.208 19.208 0 0 0 0 1.943M361.391 53.684a2.265 2.265 0 0 1-.349.739 1.702 1.702 0 0 1-.599.515 1.825 1.825 0 0 1-.858.192c-.344 0-.636-.068-.877-.204a1.755 1.755 0 0 1-.588-.534 2.271 2.271 0 0 1-.33-.75 3.623 3.623 0 0 1 .006-1.734 2.22 2.22 0 0 1 .342-.75c.156-.215.358-.39.607-.521.248-.133.547-.198.9-.198.351 0 .645.067.882.204.236.136.425.316.57.54.144.224.248.48.312.769.063.287.096.584.096.886 0 .289-.039.57-.114.847m-3.666 2.202v-.84h.024c.168.344.432.594.791.75.361.157.756.235 1.19.235.478 0 .896-.09 1.253-.265.356-.178.651-.415.887-.715.237-.3.414-.645.535-1.037.12-.392.18-.808.18-1.248 0-.44-.058-.856-.174-1.248a2.949 2.949 0 0 0-.529-1.026 2.488 2.488 0 0 0-.887-.69c-.357-.168-.77-.252-1.242-.252a3.066 3.066 0 0 0-1.068.203c-.184.073-.358.17-.522.295a1.63 1.63 0 0 0-.414.462h-.024v-3.192h-1.02v8.568h1.02zM363.292 55.887h1.31l1.486-2.172 1.548 2.172h1.224l-2.136-2.855 2.4-3.35h-1.309l-1.727 2.568-1.728-2.567h-1.236l2.328 3.265-2.16 2.939zM379.193 53.127v-.816h-2.616v-2.628h-.816v2.628h-2.616v.816h2.616v2.627h.816v-2.627h2.616z"/></g></g></svg>