<?xml version="1.0" encoding="UTF-8"?><svg width="186.01mm" height="187.4mm" version="1.1" viewBox="0 0 186.01 187.4" xmlns="http://www.w3.org/2000/svg" xmlns:cc="http://creativecommons.org/ns#" xmlns:dc="http://purl.org/dc/elements/1.1/" xmlns:rdf="http://www.w3.org/1999/02/22-rdf-syntax-ns#"><defs><clipPath id="a"><path transform="scale(1,-1)" d="m283.89-497.31h133.61v128.06h-133.61z" fill="url(#radialGradient5671)"/></clipPath><clipPath id="b"><path d="M 0,551.986 H 530.973 V 0 H 0 Z"/></clipPath></defs><metadata><rdf:RDF><cc:Work rdf:about=""><dc:format>image/svg+xml</dc:format><dc:type rdf:resource="http://purl.org/dc/dcmitype/StillImage"/><dc:title/></cc:Work></rdf:RDF></metadata><g transform="translate(-14.34 -47.572)"><g transform="translate(9.8257 9.0658)"><g transform="matrix(1.4634,0,0,-1.4634,-410.93,766.27)" clip-path="url(#a)"><g clip-path="url(#b)"><path d="m350.61 493.56c-33.347 0-60.388-27.035-60.388-60.388 0-26.68 17.303-49.316 41.297-57.301 3.018-0.56 4.126 1.31 4.126 2.905 0 1.439-0.056 6.197-0.082 11.243-16.8-3.653-20.345 7.125-20.345 7.125-2.747 6.979-6.705 8.836-6.705 8.836-5.48 3.748 0.413 3.67 0.413 3.67 6.064-0.425 9.257-6.223 9.257-6.223 5.386-9.231 14.127-6.562 17.573-5.02 0.543 3.903 2.107 6.568 3.834 8.076-13.413 1.526-27.513 6.705-27.513 29.844 0 6.592 2.359 11.98 6.222 16.209-0.627 1.52-2.694 7.663 0.586 15.98 0 0 5.07 1.623 16.61-6.19 4.817 1.338 9.983 2.009 15.115 2.033 5.132-0.024 10.302-0.695 15.128-2.033 11.526 7.813 16.59 6.19 16.59 6.19 3.287-8.317 1.22-14.46 0.593-15.98 3.872-4.23 6.214-9.617 6.214-16.21 0-23.194-14.127-28.3-27.574-29.795 2.166-1.874 4.096-5.55 4.096-11.183 0-8.08-0.07-14.583-0.07-16.572 0-1.608 1.087-3.49 4.148-2.898 23.982 7.994 41.263 30.622 41.263 57.294 0 33.353-27.037 60.388-60.388 60.388" fill="#fff" fill-rule="evenodd"/><path d="m313.09 406.85c-0.133-0.3-0.605-0.39-1.035-0.185-0.439 0.198-0.684 0.607-0.542 0.908 0.13 0.308 0.602 0.394 1.04 0.188 0.438-0.197 0.688-0.61 0.537-0.91m2.447-2.729c-0.289-0.267-0.853-0.143-1.234 0.279-0.396 0.421-0.469 0.985-0.177 1.255 0.297 0.267 0.843 0.142 1.238-0.279 0.396-0.426 0.473-0.984 0.172-1.255m2.381-3.477c-0.37-0.258-0.976-0.017-1.35 0.52-0.37 0.538-0.37 1.182 0.01 1.44 0.373 0.258 0.97 0.025 1.35-0.507 0.368-0.546 0.368-1.19-0.01-1.453m3.262-3.361c-0.33-0.365-1.036-0.267-1.552 0.232-0.528 0.486-0.675 1.177-0.344 1.542 0.336 0.366 1.045 0.263 1.565-0.23 0.524-0.487 0.683-1.183 0.331-1.544m4.5-1.951c-0.147-0.473-0.825-0.687-1.509-0.486-0.683 0.207-1.13 0.76-0.992 1.238 0.142 0.476 0.824 0.7 1.513 0.485 0.682-0.206 1.13-0.756 0.988-1.237m4.943-0.361c0.017-0.498-0.563-0.911-1.281-0.92-0.722-0.016-1.307 0.387-1.315 0.877 0 0.503 0.568 0.91 1.289 0.924 0.718 0.014 1.307-0.387 1.307-0.881m4.598 0.782c0.086-0.485-0.413-0.984-1.126-1.117-0.7-0.13-1.35 0.172-1.439 0.653-0.087 0.498 0.42 0.997 1.121 1.126 0.714 0.124 1.353-0.168 1.444-0.662" fill="#fff"/><path d="m224.9 499.49v-0.5" fill="none" stroke="#3a7fc3" stroke-linecap="round" stroke-miterlimit="10"/><path d="m224.9 362v-0.5" fill="none" stroke="#3a7fc3" stroke-linecap="round" stroke-miterlimit="10"/><path d="m313.09 130.85c-0.133-0.3-0.605-0.39-1.035-0.184-0.439 0.197-0.684 0.606-0.542 0.907 0.13 0.308 0.602 0.394 1.04 0.188 0.438-0.197 0.688-0.61 0.537-0.91m2.447-2.729c-0.289-0.267-0.853-0.143-1.234 0.279-0.396 0.421-0.469 0.985-0.177 1.255 0.297 0.267 0.843 0.142 1.238-0.279 0.396-0.426 0.473-0.985 0.172-1.255m2.381-3.478c-0.37-0.257-0.976-0.016-1.35 0.52-0.37 0.538-0.37 1.182 0.01 1.44 0.373 0.258 0.97 0.025 1.35-0.507 0.368-0.546 0.368-1.19-0.01-1.453m3.262-3.36c-0.33-0.365-1.036-0.267-1.552 0.231-0.528 0.487-0.675 1.178-0.344 1.543 0.336 0.366 1.045 0.263 1.565-0.23 0.524-0.487 0.683-1.183 0.331-1.544m4.5-1.951c-0.147-0.473-0.825-0.687-1.509-0.486-0.683 0.207-1.13 0.76-0.992 1.238 0.142 0.477 0.824 0.7 1.513 0.485 0.682-0.206 1.13-0.756 0.988-1.237m4.943-0.361c0.017-0.498-0.563-0.911-1.281-0.92-0.722-0.017-1.307 0.387-1.315 0.877 0 0.503 0.568 0.91 1.289 0.924 0.718 0.014 1.307-0.387 1.307-0.881m4.598 0.782c0.086-0.485-0.413-0.984-1.126-1.117-0.7-0.13-1.35 0.172-1.439 0.653-0.087 0.498 0.42 0.997 1.121 1.126 0.714 0.124 1.353-0.168 1.444-0.662" fill="#fff"/><path d="m224.9 223.49v-0.5" fill="none" stroke="#3a7fc3" stroke-linecap="round" stroke-miterlimit="10"/><path d="M 224.9,220.99 V 87" fill="none" stroke="#3a7fc3" stroke-dasharray="1, 2" stroke-linecap="round" stroke-miterlimit="10"/><path d="m224.9 85.995v-0.5" fill="none" stroke="#3a7fc3" stroke-linecap="round" stroke-miterlimit="10"/></g></g></g></g></svg>