<?xml version="1.0" encoding="UTF-8" standalone="no"?>
<!-- Created with Inkscape (http://www.inkscape.org/) -->

<svg
   xmlns:dc="http://purl.org/dc/elements/1.1/"
   xmlns:cc="http://creativecommons.org/ns#"
   xmlns:rdf="http://www.w3.org/1999/02/22-rdf-syntax-ns#"
   xmlns:svg="http://www.w3.org/2000/svg"
   xmlns="http://www.w3.org/2000/svg"
   xmlns:sodipodi="http://sodipodi.sourceforge.net/DTD/sodipodi-0.dtd"
   xmlns:inkscape="http://www.inkscape.org/namespaces/inkscape"
   id="svg4136"
   version="1.1"
   inkscape:version="0.91 r13725"
   xml:space="preserve"
   width="375"
   height="375"
   viewBox="0 0 375 375"
   sodipodi:docname="Glitch.svg"><metadata
     id="metadata4142"><rdf:RDF><cc:Work
         rdf:about=""><dc:format>image/svg+xml</dc:format><dc:type
           rdf:resource="http://purl.org/dc/dcmitype/StillImage" /><dc:title></dc:title></cc:Work></rdf:RDF></metadata><defs
     id="defs4140" /><sodipodi:namedview
     pagecolor="#ffffff"
     bordercolor="#666666"
     borderopacity="1"
     objecttolerance="10"
     gridtolerance="10"
     guidetolerance="10"
     inkscape:pageopacity="0"
     inkscape:pageshadow="2"
     inkscape:window-width="1091"
     inkscape:window-height="914"
     id="namedview4138"
     showgrid="false"
     inkscape:zoom="1.6506667"
     inkscape:cx="187.5"
     inkscape:cy="187.5"
     inkscape:window-x="5424"
     inkscape:window-y="832"
     inkscape:window-maximized="0"
     inkscape:current-layer="g4144" /><g
     id="g4144"
     inkscape:groupmode="layer"
     inkscape:label="Twitch_GlitchIcon_purple"
     transform="matrix(1.25,0,0,-1.25,0,375)"><g
       id="g4146"
       transform="translate(26.1162,299.9997)"><path
         d="m 0,0 -19.565,-52.175 0,-208.675 71.705,0 0,-39.15 39.148,0 39.109,39.15 58.68,0 78.256,78.228 L 267.333,0 0,0 Z m 26.066,-26.071 215.19,0 0,-143.481 -45.656,-45.659 -71.716,0 -39.098,-39.096 0,39.096 -58.72,0 0,189.14 z"
         style="fill:#ffffff;fill-opacity:1;fill-rule:nonzero;stroke:none"
         fill="#ffffff"
         id="path4148"
         inkscape:connector-curvature="0" /></g><path
       d="m 123.916,143.474 26.084,0 0,78.252 -26.084,0 0,-78.252 z m 71.721,0 26.079,0 0,78.252 -26.079,0 0,-78.252 z"
       style="fill:#ffffff;fill-opacity:1;fill-rule:nonzero;stroke:none"
       fill="#ffffff"
       id="path4150"
       inkscape:connector-curvature="0" /></g></svg>
